<?xml version="1.0" encoding="utf-8" standalone="no"?>
<!DOCTYPE svg PUBLIC "-//W3C//DTD SVG 1.1//EN"
  "http://www.w3.org/Graphics/SVG/1.1/DTD/svg11.dtd">
<!-- Created with matplotlib (https://matplotlib.org/) -->
<svg height="216pt" version="1.1" viewBox="0 0 216 216" width="216pt" xmlns="http://www.w3.org/2000/svg" xmlns:xlink="http://www.w3.org/1999/xlink">
 <defs>
  <style type="text/css">
*{stroke-linecap:butt;stroke-linejoin:round;}
  </style>
 </defs>
 <g id="figure_1">
  <g id="patch_1">
   <path d="M 0 216 
L 216 216 
L 216 0 
L 0 0 
z
" style="fill:none;"/>
  </g>
  <g id="axes_1">
   <g id="LineCollection_1">
    <path clip-path="url(#p2b0daffde2)" d="M 156.232903 181.082536 
L 156.232903 33.837464 
" style="fill:none;stroke:#8000ff;stroke-opacity:0.6;stroke-width:2;"/>
    <path clip-path="url(#p2b0daffde2)" d="M 156.232903 181.082536 
L 65.167097 33.837464 
" style="fill:none;stroke:#b2f396;stroke-opacity:0.6;stroke-width:2;"/>
    <path clip-path="url(#p2b0daffde2)" d="M 156.232903 181.082536 
L 34.811828 33.837464 
" style="fill:none;stroke:#ff964f;stroke-opacity:0.6;stroke-width:2;"/>
    <path clip-path="url(#p2b0daffde2)" d="M 156.232903 181.082536 
L 95.522366 33.837464 
" style="fill:none;stroke:#4df3ce;stroke-opacity:0.6;stroke-width:2;"/>
    <path clip-path="url(#p2b0daffde2)" d="M 156.232903 181.082536 
L 125.877634 33.837464 
" style="fill:none;stroke:#1996f3;stroke-opacity:0.6;stroke-width:2;"/>
    <path clip-path="url(#p2b0daffde2)" d="M 156.232903 181.082536 
L 186.588172 33.837464 
" style="fill:none;stroke:#ff0000;stroke-opacity:0.6;stroke-width:2;"/>
    <path clip-path="url(#p2b0daffde2)" d="M 156.232903 33.837464 
L 65.167097 181.082536 
" style="fill:none;stroke:#b2f396;stroke-opacity:0.6;stroke-width:2;"/>
    <path clip-path="url(#p2b0daffde2)" d="M 156.232903 33.837464 
L 34.811828 181.082536 
" style="fill:none;stroke:#4df3ce;stroke-opacity:0.6;stroke-width:2;"/>
    <path clip-path="url(#p2b0daffde2)" d="M 156.232903 33.837464 
L 125.877634 181.082536 
" style="fill:none;stroke:#ff0000;stroke-opacity:0.6;stroke-width:2;"/>
    <path clip-path="url(#p2b0daffde2)" d="M 156.232903 33.837464 
L 95.522366 181.082536 
" style="fill:none;stroke:#ff964f;stroke-opacity:0.6;stroke-width:2;"/>
    <path clip-path="url(#p2b0daffde2)" d="M 156.232903 33.837464 
L 186.588172 181.082536 
" style="fill:none;stroke:#1996f3;stroke-opacity:0.6;stroke-width:2;"/>
    <path clip-path="url(#p2b0daffde2)" d="M 34.811828 181.082536 
L 65.167097 33.837464 
" style="fill:none;stroke:#ff0000;stroke-opacity:0.6;stroke-width:2;"/>
    <path clip-path="url(#p2b0daffde2)" d="M 34.811828 181.082536 
L 34.811828 33.837464 
" style="fill:none;stroke:#8000ff;stroke-opacity:0.6;stroke-width:2;"/>
    <path clip-path="url(#p2b0daffde2)" d="M 34.811828 181.082536 
L 95.522366 33.837464 
" style="fill:none;stroke:#ff964f;stroke-opacity:0.6;stroke-width:2;"/>
    <path clip-path="url(#p2b0daffde2)" d="M 34.811828 181.082536 
L 125.877634 33.837464 
" style="fill:none;stroke:#b2f396;stroke-opacity:0.6;stroke-width:2;"/>
    <path clip-path="url(#p2b0daffde2)" d="M 34.811828 181.082536 
L 186.588172 33.837464 
" style="fill:none;stroke:#1996f3;stroke-opacity:0.6;stroke-width:2;"/>
    <path clip-path="url(#p2b0daffde2)" d="M 95.522366 33.837464 
L 65.167097 181.082536 
" style="fill:none;stroke:#ff0000;stroke-opacity:0.6;stroke-width:2;"/>
    <path clip-path="url(#p2b0daffde2)" d="M 95.522366 33.837464 
L 125.877634 181.082536 
" style="fill:none;stroke:#1996f3;stroke-opacity:0.6;stroke-width:2;"/>
    <path clip-path="url(#p2b0daffde2)" d="M 95.522366 33.837464 
L 95.522366 181.082536 
" style="fill:none;stroke:#8000ff;stroke-opacity:0.6;stroke-width:2;"/>
    <path clip-path="url(#p2b0daffde2)" d="M 95.522366 33.837464 
L 186.588172 181.082536 
" style="fill:none;stroke:#b2f396;stroke-opacity:0.6;stroke-width:2;"/>
    <path clip-path="url(#p2b0daffde2)" d="M 186.588172 33.837464 
L 65.167097 181.082536 
" style="fill:none;stroke:#4df3ce;stroke-opacity:0.6;stroke-width:2;"/>
    <path clip-path="url(#p2b0daffde2)" d="M 186.588172 33.837464 
L 125.877634 181.082536 
" style="fill:none;stroke:#ff964f;stroke-opacity:0.6;stroke-width:2;"/>
    <path clip-path="url(#p2b0daffde2)" d="M 186.588172 33.837464 
L 95.522366 181.082536 
" style="fill:none;stroke:#b2f396;stroke-opacity:0.6;stroke-width:2;"/>
    <path clip-path="url(#p2b0daffde2)" d="M 186.588172 33.837464 
L 186.588172 181.082536 
" style="fill:none;stroke:#8000ff;stroke-opacity:0.6;stroke-width:2;"/>
    <path clip-path="url(#p2b0daffde2)" d="M 95.522366 181.082536 
L 65.167097 33.837464 
" style="fill:none;stroke:#1996f3;stroke-opacity:0.6;stroke-width:2;"/>
    <path clip-path="url(#p2b0daffde2)" d="M 95.522366 181.082536 
L 34.811828 33.837464 
" style="fill:none;stroke:#4df3ce;stroke-opacity:0.6;stroke-width:2;"/>
    <path clip-path="url(#p2b0daffde2)" d="M 95.522366 181.082536 
L 125.877634 33.837464 
" style="fill:none;stroke:#ff0000;stroke-opacity:0.6;stroke-width:2;"/>
    <path clip-path="url(#p2b0daffde2)" d="M 65.167097 181.082536 
L 65.167097 33.837464 
" style="fill:none;stroke:#8000ff;stroke-opacity:0.6;stroke-width:2;"/>
    <path clip-path="url(#p2b0daffde2)" d="M 65.167097 181.082536 
L 34.811828 33.837464 
" style="fill:none;stroke:#1996f3;stroke-opacity:0.6;stroke-width:2;"/>
    <path clip-path="url(#p2b0daffde2)" d="M 65.167097 181.082536 
L 125.877634 33.837464 
" style="fill:none;stroke:#ff964f;stroke-opacity:0.6;stroke-width:2;"/>
    <path clip-path="url(#p2b0daffde2)" d="M 65.167097 33.837464 
L 125.877634 181.082536 
" style="fill:none;stroke:#4df3ce;stroke-opacity:0.6;stroke-width:2;"/>
    <path clip-path="url(#p2b0daffde2)" d="M 65.167097 33.837464 
L 186.588172 181.082536 
" style="fill:none;stroke:#ff964f;stroke-opacity:0.6;stroke-width:2;"/>
    <path clip-path="url(#p2b0daffde2)" d="M 34.811828 33.837464 
L 125.877634 181.082536 
" style="fill:none;stroke:#b2f396;stroke-opacity:0.6;stroke-width:2;"/>
    <path clip-path="url(#p2b0daffde2)" d="M 34.811828 33.837464 
L 186.588172 181.082536 
" style="fill:none;stroke:#ff0000;stroke-opacity:0.6;stroke-width:2;"/>
    <path clip-path="url(#p2b0daffde2)" d="M 125.877634 33.837464 
L 125.877634 181.082536 
" style="fill:none;stroke:#8000ff;stroke-opacity:0.6;stroke-width:2;"/>
    <path clip-path="url(#p2b0daffde2)" d="M 125.877634 33.837464 
L 186.588172 181.082536 
" style="fill:none;stroke:#4df3ce;stroke-opacity:0.6;stroke-width:2;"/>
   </g>
   <g id="PathCollection_1">
    <defs>
     <path d="M 0 1.118034 
C 0.296506 1.118034 0.580908 1.000231 0.790569 0.790569 
C 1.000231 0.580908 1.118034 0.296506 1.118034 0 
C 1.118034 -0.296506 1.000231 -0.580908 0.790569 -0.790569 
C 0.580908 -1.000231 0.296506 -1.118034 0 -1.118034 
C -0.296506 -1.118034 -0.580908 -1.000231 -0.790569 -0.790569 
C -1.000231 -0.580908 -1.118034 -0.296506 -1.118034 0 
C -1.118034 0.296506 -1.000231 0.580908 -0.790569 0.790569 
C -0.580908 1.000231 -0.296506 1.118034 0 1.118034 
z
" id="m3f9405b2c3" style="stroke:#000000;"/>
    </defs>
    <g clip-path="url(#p2b0daffde2)">
     <use style="stroke:#000000;" x="156.232903" xlink:href="#m3f9405b2c3" y="181.082536"/>
     <use style="stroke:#000000;" x="156.232903" xlink:href="#m3f9405b2c3" y="33.837464"/>
     <use style="stroke:#000000;" x="34.811828" xlink:href="#m3f9405b2c3" y="181.082536"/>
     <use style="stroke:#000000;" x="95.522366" xlink:href="#m3f9405b2c3" y="33.837464"/>
     <use style="stroke:#000000;" x="186.588172" xlink:href="#m3f9405b2c3" y="33.837464"/>
     <use style="stroke:#000000;" x="95.522366" xlink:href="#m3f9405b2c3" y="181.082536"/>
     <use style="stroke:#000000;" x="65.167097" xlink:href="#m3f9405b2c3" y="181.082536"/>
     <use style="stroke:#000000;" x="65.167097" xlink:href="#m3f9405b2c3" y="33.837464"/>
     <use style="stroke:#000000;" x="34.811828" xlink:href="#m3f9405b2c3" y="33.837464"/>
     <use style="stroke:#000000;" x="125.877634" xlink:href="#m3f9405b2c3" y="33.837464"/>
     <use style="stroke:#000000;" x="125.877634" xlink:href="#m3f9405b2c3" y="181.082536"/>
     <use style="stroke:#000000;" x="186.588172" xlink:href="#m3f9405b2c3" y="181.082536"/>
    </g>
   </g>
  </g>
 </g>
 <defs>
  <clipPath id="p2b0daffde2">
   <rect height="163.08" width="167.4" x="27" y="25.92"/>
  </clipPath>
 </defs>
</svg>
